<svg width="196" height="31" viewBox="0 0 196 31" fill="none" xmlns="http://www.w3.org/2000/svg">
<path d="M6.87602 0.840013H10.8L17.028 30H13.176L11.844 22.656H5.90402L4.50002 30H0.684021L6.87602 0.840013ZM11.304 19.74L8.85602 6.60001L6.44402 19.74H11.304ZM27.5108 30.324C25.4708 30.324 23.8748 29.916 22.7228 29.1C21.5948 28.284 20.8148 27.144 20.3828 25.68C19.9508 24.216 19.7348 22.38 19.7348 20.172V0.840013H23.6228V20.352C23.6228 22.56 23.8748 24.24 24.3788 25.392C24.9068 26.544 25.9508 27.12 27.5108 27.12C29.0708 27.12 30.1028 26.544 30.6068 25.392C31.1348 24.24 31.3988 22.56 31.3988 20.352V0.840013H35.2508V20.172C35.2508 22.38 35.0348 24.216 34.6028 25.68C34.1708 27.144 33.3908 28.284 32.2628 29.1C31.1348 29.916 29.5508 30.324 27.5108 30.324ZM42.7376 3.86401H37.8056V0.840013H51.5936V3.86401H46.8056V30H42.7376V3.86401ZM61.8567 30.324C59.0007 30.324 56.9487 29.52 55.7007 27.912C54.4767 26.28 53.8647 23.928 53.8647 20.856V9.80401C53.8647 6.78001 54.4887 4.48801 55.7367 2.92801C56.9847 1.36801 59.0247 0.588013 61.8567 0.588013C64.6887 0.588013 66.7167 1.38001 67.9407 2.96401C69.1887 4.52401 69.8127 6.80401 69.8127 9.80401V20.892C69.8127 23.916 69.1887 26.244 67.9407 27.876C66.6927 29.508 64.6647 30.324 61.8567 30.324ZM61.8567 27.12C63.3687 27.12 64.3887 26.676 64.9167 25.788C65.4447 24.9 65.7087 23.556 65.7087 21.756V8.97601C65.7087 7.20001 65.4447 5.89201 64.9167 5.05201C64.3887 4.18801 63.3687 3.75601 61.8567 3.75601C60.3207 3.75601 59.2887 4.18801 58.7607 5.05201C58.2327 5.89201 57.9687 7.20001 57.9687 8.97601V21.756C57.9687 23.556 58.2327 24.9 58.7607 25.788C59.2887 26.676 60.3207 27.12 61.8567 27.12ZM82.0375 0.840013H93.3415V3.86401H86.1055V13.512H91.9735V16.392H86.1055V27.084H93.4135V30H82.0375V0.840013ZM100.982 14.736L95.0057 0.840013H98.7857L103.214 11.136L107.246 0.840013H111.026L104.906 15.06L111.314 30H107.534L102.782 19.02L98.6777 30H94.8977L100.982 14.736ZM114.065 0.840013H121.301C123.821 0.840013 125.645 1.52401 126.773 2.89201C127.925 4.26001 128.501 6.26401 128.501 8.90401C128.501 11.28 127.889 13.128 126.665 14.448C125.441 15.768 123.665 16.428 121.337 16.428H118.133V30H114.065V0.840013ZM120.005 13.512C121.205 13.512 122.129 13.38 122.777 13.116C123.449 12.852 123.929 12.396 124.217 11.748C124.505 11.1 124.649 10.164 124.649 8.94001C124.649 7.45201 124.541 6.36001 124.325 5.66401C124.109 4.96801 123.677 4.47601 123.029 4.18801C122.405 3.90001 121.409 3.75601 120.041 3.75601H118.133V13.512H120.005ZM131.362 0.840013H137.23C140.182 0.840013 142.342 1.45201 143.71 2.67601C145.102 3.87601 145.798 5.84401 145.798 8.58001C145.798 12.324 144.598 14.592 142.198 15.384L146.338 30H142.414L138.598 16.32H135.43V30H131.362V0.840013ZM136.978 13.404C138.73 13.404 139.978 13.056 140.722 12.36C141.49 11.664 141.874 10.404 141.874 8.58001C141.874 7.38001 141.742 6.44401 141.478 5.77201C141.214 5.07601 140.746 4.57201 140.074 4.26001C139.402 3.92401 138.454 3.75601 137.23 3.75601H135.43V13.404H136.978ZM150.03 0.840013H161.334V3.86401H154.098V13.512H159.966V16.392H154.098V27.084H161.406V30H150.03V0.840013ZM171.566 30.324C169.118 30.324 167.246 29.568 165.95 28.056C164.678 26.544 163.97 24.468 163.826 21.828L167.426 20.856C167.546 22.728 167.906 24.24 168.506 25.392C169.13 26.544 170.15 27.12 171.566 27.12C172.622 27.12 173.414 26.832 173.942 26.256C174.494 25.656 174.77 24.804 174.77 23.7C174.77 22.5 174.518 21.504 174.014 20.712C173.51 19.92 172.706 19.044 171.602 18.084L166.706 13.764C165.722 12.9 165.002 11.976 164.546 10.992C164.114 9.98401 163.898 8.76001 163.898 7.32001C163.898 5.18401 164.51 3.52801 165.734 2.35201C166.958 1.17601 168.626 0.588013 170.738 0.588013C173.042 0.588013 174.782 1.20001 175.958 2.42401C177.134 3.64801 177.842 5.54401 178.082 8.11201L174.626 9.04801C174.506 7.34401 174.17 6.03601 173.618 5.12401C173.09 4.18801 172.13 3.72001 170.738 3.72001C169.706 3.72001 168.914 3.99601 168.362 4.54801C167.81 5.07601 167.534 5.86801 167.534 6.92401C167.534 7.78801 167.678 8.52001 167.966 9.12001C168.254 9.69601 168.746 10.284 169.442 10.884L174.374 15.204C175.646 16.332 176.654 17.556 177.398 18.876C178.166 20.196 178.55 21.696 178.55 23.376C178.55 25.512 177.902 27.204 176.606 28.452C175.31 29.7 173.63 30.324 171.566 30.324ZM188.582 30.324C186.134 30.324 184.262 29.568 182.966 28.056C181.694 26.544 180.986 24.468 180.842 21.828L184.442 20.856C184.562 22.728 184.922 24.24 185.522 25.392C186.146 26.544 187.166 27.12 188.582 27.12C189.638 27.12 190.43 26.832 190.958 26.256C191.51 25.656 191.786 24.804 191.786 23.7C191.786 22.5 191.534 21.504 191.03 20.712C190.526 19.92 189.722 19.044 188.618 18.084L183.722 13.764C182.738 12.9 182.018 11.976 181.562 10.992C181.13 9.98401 180.914 8.76001 180.914 7.32001C180.914 5.18401 181.526 3.52801 182.75 2.35201C183.974 1.17601 185.642 0.588013 187.754 0.588013C190.058 0.588013 191.798 1.20001 192.974 2.42401C194.15 3.64801 194.858 5.54401 195.098 8.11201L191.642 9.04801C191.522 7.34401 191.186 6.03601 190.634 5.12401C190.106 4.18801 189.146 3.72001 187.754 3.72001C186.722 3.72001 185.93 3.99601 185.378 4.54801C184.826 5.07601 184.55 5.86801 184.55 6.92401C184.55 7.78801 184.694 8.52001 184.982 9.12001C185.27 9.69601 185.762 10.284 186.458 10.884L191.39 15.204C192.662 16.332 193.67 17.556 194.414 18.876C195.182 20.196 195.566 21.696 195.566 23.376C195.566 25.512 194.918 27.204 193.622 28.452C192.326 29.7 190.646 30.324 188.582 30.324Z" fill="white"/>
</svg>
